<svg width="52" height="32" viewBox="0 0 52 32" fill="none" xmlns="http://www.w3.org/2000/svg">
<path d="M45.375 0.5C41.9909 0.5 39.2525 3.10917 38.9684 6.44167C34.1117 5.15 31.6317 1.79167 26 1.79167C20.3425 1.79167 17.8884 5.15 13.0317 6.44167C12.7475 3.135 10.0092 0.5 6.62502 0.5C3.06002 0.5 0.166687 3.39333 0.166687 6.95833V8.25C0.166687 23.75 9.46669 28.4258 17.01 28.865C19.6192 30.5183 22.6934 31.5 26 31.5C29.3067 31.5 32.3809 30.5183 34.99 28.865C42.5334 28.4258 51.8334 23.75 51.8334 8.25V6.95833C51.8334 3.39333 48.94 0.5 45.375 0.5ZM4.04169 8.25V6.95833C4.04169 5.5375 5.20419 4.375 6.62502 4.375C8.04585 4.375 9.20835 5.5375 9.20835 6.95833V14.7083C9.20835 18.015 10.19 21.0892 11.8175 23.6983C7.89085 21.8642 4.04169 17.6792 4.04169 8.25ZM47.9584 8.25C47.9584 17.6792 44.1092 21.8642 40.1825 23.6983C41.8359 21.0892 42.7917 18.015 42.7917 14.7083V6.95833C42.7917 5.5375 43.9542 4.375 45.375 4.375C46.7959 4.375 47.9584 5.5375 47.9584 6.95833V8.25ZM22.6159 12.0733C21.4792 12.745 20.1359 13.52 18.25 14.0367V11.35C19.49 10.9108 20.42 10.3683 21.2984 9.85167C22.6934 9.025 24.0109 8.25 26 8.25C27.9892 8.25 29.2809 9.025 30.65 9.85167C31.5284 10.3683 32.4842 10.9367 33.75 11.3758V14.0625C31.8125 13.52 30.495 12.745 29.3325 12.0475C28.1442 11.35 27.2659 10.8333 26 10.8333C24.7342 10.8333 23.83 11.35 22.6159 12.0733Z" fill="#1F59B1"/>
</svg>
