<?xml version="1.0" encoding="utf-8"?>
<!-- Generator: Adobe Illustrator 26.0.3, SVG Export Plug-In . SVG Version: 6.00 Build 0)  -->
<svg version="1.1" id="Layer_1" xmlns="http://www.w3.org/2000/svg" xmlns:xlink="http://www.w3.org/1999/xlink" x="0px" y="0px"
	 viewBox="0 0 42.9 42.7" enable-background="new 0 0 42.9 42.7" xml:space="preserve">
<g>
	<defs>
		
			<rect id="SVGID_1_" x="-7.9" y="-0.1" transform="matrix(0.7071 -0.7071 0.7071 0.7071 -10.5483 20.6696)" width="55.2" height="46.3"/>
	</defs>
	<clipPath id="SVGID_00000078728374812657616730000016332678573843497361_">
		<use xlink:href="#SVGID_1_"  overflow="visible"/>
	</clipPath>
	<g clip-path="url(#SVGID_00000078728374812657616730000016332678573843497361_)">
		<path fill="#1F59B1" d="M5.7,29.7v7.1h7.2l21.4-21L27,8.7L5.7,29.7z M37.8,8.2c0.8-0.7,0.8-1.9,0-2.7l-0.4-0.3
			c-0.8-0.7-2-0.7-2.7,0l-6.7,6.6l3.1,3L37.8,8.2z"/>
		
			<rect x="35.7" y="-0.3" transform="matrix(0.7071 -0.7071 0.7071 0.7071 6.6116 27.7774)" fill="#1F59B1" width="2.2" height="12.5"/>
		
			<rect x="29" y="3.5" transform="matrix(0.7071 -0.7071 0.7071 0.7071 -0.1483 24.9774)" fill="#1F59B1" width="2.2" height="18.4"/>
		
			<rect x="-1" y="33.4" transform="matrix(0.7071 -0.7071 0.7071 0.7071 -21.9882 15.9309)" fill="#1F59B1" width="18.4" height="2.2"/>
	</g>
</g>
</svg>
