<svg width="39" height="39" viewBox="0 0 39 39" fill="none" xmlns="http://www.w3.org/2000/svg">
<path d="M34.5 8.25H27V4.5C27 2.4375 25.3125 0.75 23.25 0.75H15.75C13.6875 0.75 12 2.4375 12 4.5V8.25H4.5C2.4375 8.25 0.75 9.9375 0.75 12V34.5C0.75 36.5625 2.4375 38.25 4.5 38.25H34.5C36.5625 38.25 38.25 36.5625 38.25 34.5V12C38.25 9.9375 36.5625 8.25 34.5 8.25ZM15.75 4.5H23.25V8.25H15.75V4.5ZM27 25.125H21.375V30.75H17.625V25.125H12V21.375H17.625V15.75H21.375V21.375H27V25.125Z" fill="#1F59B1"/>
</svg>
