<?xml version="1.0" encoding="utf-8"?>
<!-- Generator: Adobe Illustrator 25.4.1, SVG Export Plug-In . SVG Version: 6.00 Build 0)  -->
<svg version="1.1" id="Layer_1" xmlns="http://www.w3.org/2000/svg" xmlns:xlink="http://www.w3.org/1999/xlink" x="0px" y="0px"
	 viewBox="0 0 144 144" style="enable-background:new 0 0 144 144;" xml:space="preserve">
<style type="text/css">
	.st0{fill:#006778;}
</style>
<g>
	<polygon class="st0" points="91.61,104.3 87.19,104.3 87.19,122.63 38.6,132.03 38.6,12.06 87.19,21.46 87.19,39.79 91.61,39.79 
		91.61,17.81 34.18,6.69 34.18,137.39 91.61,126.28 	"/>
	<polygon class="st0" points="75.79,30.93 75.79,39.79 80.21,39.79 80.21,27.15 45.58,21.64 45.58,122.45 80.21,116.94 80.21,104.3 
		75.79,104.3 75.79,113.16 50,117.26 50,26.82 	"/>
	<path class="st0" d="M87.19,64.91c-0.31-0.02-0.63-0.03-0.98-0.03c-2.89,0-4.59,0.67-6,1.36c-0.24,0.12-0.47,0.23-0.69,0.35
		c-1.13,0.58-2.06,1.06-3.73,1.18c-0.29,0.02-0.59,0.04-0.93,0.04c-0.11,0-0.2-0.01-0.31-0.01c-2.08-0.05-3.1-0.56-4.35-1.21
		c-1.55-0.8-3.32-1.71-6.69-1.71v4.42c2.3,0,3.34,0.54,4.66,1.22c1.5,0.78,3.22,1.65,6.38,1.7c0.1,0,0.2,0.01,0.31,0.01
		c0.33,0,0.63-0.02,0.93-0.03c1.94-0.11,3.31-0.53,4.42-1.03c0.48-0.21,0.92-0.43,1.34-0.65c1.32-0.68,2.36-1.22,4.66-1.22
		c0.36,0,0.67,0.02,0.98,0.04c1.65,0.13,2.57,0.6,3.69,1.18c0.24,0.12,0.49,0.25,0.74,0.37c1.4,0.69,3.1,1.34,5.95,1.34
		c2.25,0,3.77-0.41,5-0.91c0.62-0.26,1.17-0.53,1.69-0.8c0.8-0.41,1.51-0.77,2.45-0.99v6.7l9.14-9.14l-9.14-9.13v7.07
		c-1.82,0.26-3.05,0.83-4.14,1.39c-0.12,0.06-0.23,0.12-0.34,0.18c-1.32,0.68-2.36,1.22-4.66,1.22c-2.3,0-3.34-0.54-4.66-1.22
		c-0.41-0.21-0.83-0.43-1.29-0.63C90.49,65.46,89.13,65.02,87.19,64.91z"/>
	<path class="st0" d="M115.84,52.62l-9.14-9.14v7.08c-1.82,0.26-3.05,0.83-4.14,1.39c-0.12,0.06-0.23,0.12-0.34,0.17
		c-1.32,0.68-2.36,1.22-4.66,1.22c-2.3,0-3.34-0.54-4.66-1.22c-0.41-0.21-0.83-0.43-1.29-0.63c-1.12-0.5-2.48-0.93-4.42-1.04
		c-0.31-0.02-0.63-0.03-0.98-0.03c-2.89,0-4.59,0.67-6,1.36c-0.24,0.12-0.47,0.23-0.69,0.35c-1.13,0.58-2.06,1.05-3.73,1.18
		c-0.29,0.02-0.59,0.04-0.93,0.04c-0.11,0-0.2-0.01-0.31-0.01c-2.08-0.05-3.1-0.56-4.35-1.21c-1.55-0.8-3.31-1.71-6.69-1.71v4.42
		c2.3,0,3.34,0.54,4.66,1.22c1.5,0.78,3.22,1.64,6.38,1.7c0.1,0,0.2,0.01,0.31,0.01c0.33,0,0.63-0.02,0.93-0.03
		c1.94-0.1,3.31-0.53,4.42-1.03c0.48-0.21,0.92-0.43,1.34-0.65c1.32-0.68,2.36-1.22,4.66-1.22c0.36,0,0.67,0.02,0.98,0.04
		c1.65,0.13,2.57,0.6,3.69,1.18c0.24,0.12,0.49,0.25,0.74,0.37c1.4,0.69,3.1,1.34,5.95,1.34c2.25,0,3.77-0.4,5-0.91
		c0.62-0.25,1.17-0.53,1.69-0.8c0.8-0.41,1.51-0.77,2.45-0.99v6.7L115.84,52.62z"/>
	<path class="st0" d="M115.84,82.24l-9.14-9.14v7.08c-1.82,0.26-3.05,0.83-4.14,1.39c-0.12,0.06-0.23,0.12-0.34,0.17
		c-1.32,0.68-2.36,1.22-4.66,1.22c-2.3,0-3.34-0.54-4.66-1.22c-0.41-0.21-0.83-0.43-1.29-0.63c-1.12-0.5-2.48-0.93-4.42-1.04
		c-0.31-0.02-0.63-0.03-0.98-0.03c-2.89,0-4.59,0.67-6,1.36c-0.24,0.12-0.47,0.23-0.69,0.35c-1.13,0.58-2.06,1.05-3.73,1.18
		c-0.29,0.02-0.59,0.04-0.93,0.04c-0.11,0-0.2-0.01-0.31-0.01c-2.08-0.05-3.1-0.56-4.35-1.21c-1.55-0.8-3.31-1.71-6.69-1.71v4.42
		c2.3,0,3.34,0.54,4.66,1.22c1.5,0.78,3.22,1.64,6.38,1.7c0.1,0,0.2,0.01,0.31,0.01c0.33,0,0.63-0.02,0.93-0.03
		c1.94-0.1,3.31-0.53,4.42-1.03c0.48-0.21,0.92-0.43,1.34-0.65c1.32-0.68,2.36-1.22,4.66-1.22c0.36,0,0.67,0.02,0.98,0.04
		c1.65,0.13,2.57,0.6,3.69,1.18c0.24,0.12,0.49,0.25,0.74,0.37c1.4,0.69,3.1,1.34,5.95,1.34c2.25,0,3.77-0.4,5-0.91
		c0.62-0.25,1.17-0.53,1.69-0.8c0.8-0.41,1.51-0.77,2.45-0.99v6.7L115.84,82.24z"/>
</g>
</svg>
